HIERARCHY
ROOT Hips
{
	OFFSET 0.00000 0.00000 0.00000
	CHANNELS 6 Xposition Yposition Zposition Zrotation Yrotation Xrotation 
	JOINT LHipJoint
	{
		OFFSET 0 0 0
		CHANNELS 3 Zrotation Yrotation Xrotation
		JOINT LeftUpLeg
		{
			OFFSET 1.44960 -1.75505 0.85172
			CHANNELS 3 Zrotation Yrotation Xrotation
			JOINT LeftLeg
			{
				OFFSET 2.40573 -6.60971 0.00000
				CHANNELS 3 Zrotation Yrotation Xrotation
				JOINT LeftFoot
				{
					OFFSET 2.58773 -7.10974 0.00000
					CHANNELS 3 Zrotation Yrotation Xrotation
					JOINT LeftToeBase
					{
						OFFSET 0.18252 -0.50147 1.77316
						CHANNELS 3 Zrotation Yrotation Xrotation
						End Site
						{
							OFFSET 0.00000 -0.00000 0.92990
						}
					}
				}
			}
		}
	}
	JOINT RHipJoint
	{
		OFFSET 0 0 0
		CHANNELS 3 Zrotation Yrotation Xrotation
		JOINT RightUpLeg
		{
			OFFSET -1.40744 -1.75505 0.85172
			CHANNELS 3 Zrotation Yrotation Xrotation
			JOINT RightLeg
			{
				OFFSET -2.43714 -6.69600 0.00000
				CHANNELS 3 Zrotation Yrotation Xrotation
				JOINT RightFoot
				{
					OFFSET -2.51650 -6.91404 0.00000
					CHANNELS 3 Zrotation Yrotation Xrotation
					JOINT RightToeBase
					{
						OFFSET -0.25383 -0.69740 1.96384
						CHANNELS 3 Zrotation Yrotation Xrotation
						End Site
						{
							OFFSET -0.00000 -0.00000 1.04244
						}
					}
				}
			}
		}
	}
	JOINT LowerBack
	{
		OFFSET 0 0 0
		CHANNELS 3 Zrotation Yrotation Xrotation
		JOINT Spine
		{
			OFFSET 0.00579 2.14458 -0.24367
			CHANNELS 3 Zrotation Yrotation Xrotation
			JOINT Spine1
			{
				OFFSET 0.05899 2.16316 -0.04515
				CHANNELS 3 Zrotation Yrotation Xrotation
				JOINT Neck
				{
					OFFSET 0 0 0
					CHANNELS 3 Zrotation Yrotation Xrotation
					JOINT Neck1
					{
						OFFSET -0.01650 1.59577 0.24841
						CHANNELS 3 Zrotation Yrotation Xrotation
						JOINT Head
						{
							OFFSET -0.01016 1.63072 -0.17782
							CHANNELS 3 Zrotation Yrotation Xrotation
							End Site
							{
								OFFSET -0.00250 1.64111 -0.08717
							}
						}
					}
				}
				JOINT LeftShoulder
				{
					OFFSET 0 0 0
					CHANNELS 3 Zrotation Yrotation Xrotation
					JOINT LeftArm
					{
						OFFSET 3.17745 0.95174 -0.45729
						CHANNELS 3 Zrotation Yrotation Xrotation
						JOINT LeftForeArm
						{
							OFFSET 4.93485 -0.00000 0.00000
							CHANNELS 3 Zrotation Yrotation Xrotation
							JOINT LeftHand
							{
								OFFSET 3.41719 -0.00000 -0.00000
								CHANNELS 3 Zrotation Yrotation Xrotation
								JOINT LeftFingerBase
								{
									OFFSET 0 0 0
									CHANNELS 3 Zrotation Yrotation Xrotation
									JOINT LeftHandIndex1
									{
										OFFSET 0.62410 -0.00000 -0.00000
										CHANNELS 3 Zrotation Yrotation Xrotation
										End Site
										{
											OFFSET 0.50317 -0.00000 -0.00000
										}
									}
								}
								JOINT LThumb
								{
									OFFSET 0 0 0
									CHANNELS 3 Zrotation Yrotation Xrotation
									End Site
									{
										OFFSET 0.51085 -0.00000 0.51085
									}
								}
							}
						}
					}
				}
				JOINT RightShoulder
				{
					OFFSET 0 0 0
					CHANNELS 3 Zrotation Yrotation Xrotation
					JOINT RightArm
					{
						OFFSET -2.87924 1.13038 -0.75204
						CHANNELS 3 Zrotation Yrotation Xrotation
						JOINT RightForeArm
						{
							OFFSET -5.22034 -0.00000 0.00000
							CHANNELS 3 Zrotation Yrotation Xrotation
							JOINT RightHand
							{
								OFFSET -3.41809 -0.00000 -0.00000
								CHANNELS 3 Zrotation Yrotation Xrotation
								JOINT RightFingerBase
								{
									OFFSET 0 0 0
									CHANNELS 3 Zrotation Yrotation Xrotation
									JOINT RightHandIndex1
									{
										OFFSET -0.77534 -0.00000 -0.00000
										CHANNELS 3 Zrotation Yrotation Xrotation
										End Site
										{
											OFFSET -0.62510 -0.00000 -0.00000
										}
									}
								}
								JOINT RThumb
								{
									OFFSET 0 0 0
									CHANNELS 3 Zrotation Yrotation Xrotation
									End Site
									{
										OFFSET -0.63464 -0.00000 0.63464
									}
								}
							}
						}
					}
				}
			}
		}
	}
}
MOTION
Frames: 8
Frame Time: 0.25
0.00 0.00 0.00 0 0 0 0 0 0 -21 0 0 0 0 0 0 0 0 0 0 0 0 0 0 21 0 0 0 0 0 0 0 0 0 0 0 0 0 0 0 0 0 0 0 0 0 0 -16 0 0 21 0 0 11 0 0 0 -8 0 0 0 0 0 0 0 0 0 0 0 0 0 0 0 0 0 0 0 0 8 0 0 0 0 0 0 0 0 0 0 0 0 0 0 0 0 0
0.00 0.00 0.00 -3.5274 4.6131 4.8632 0.0000 0.0000 0.0000 -16.1099 -9.5794 -18.6967 5.4499 13.8732 42.7318 1.4245 -7.8718 -21.3499 0.0309 1.1341 3.1179 0.0000 0.0000 0.0000 29.6345 3.2402 -9.5502 -2.1416 -9.1550 26.2813 -1.6814 -1.2626 -24.9973 -1.4459 -7.6014 21.5099 2.0604 -1.3376 3.5396 3.9323 -1.5753 -0.9458 2.9938 -0.7858 -2.9057 2.2516 -0.8950 -12.0979 -7.3875 -0.7292 9.1087 -2.7173 -0.7551 4.6754 0.0000 0.0000 0.0000 -86.3221 3.9981 24.7628 22.2530 -33.2618 -6.7241 -0.0000 -0.0000 3.6140 4.8100 40.6886 3.1401 -7.1250 0.0000 -0.0000 -41.3495 66.2602 -22.8385 0.0000 0.0000 0.0000 83.0796 -0.7266 -11.8589 -8.1683 13.8254 -0.9920 0.0000 0.0000 6.0434 -29.8936 27.1954 -14.7208 7.1250 -0.0000 -0.0000 0.1713 0.6746 0.1733
0.00 0.00 0.00 -4.2709 3.7092 3.7011 0.0000 0.0000 0.0000 -11.1336 -13.9428 -30.5072 3.3645 11.2630 33.1720 0.7815 -4.8306 -15.7729 0.0069 0.5358 1.4722 0.0000 0.0000 0.0000 31.3928 0.3160 4.7875 -0.3671 -3.8917 10.7721 -0.9164 -4.0281 -19.9700 -0.8265 -5.8004 16.2064 1.6911 0.7053 3.0203 3.2440 1.1349 -1.9375 2.3283 0.5676 -3.7260 0.7510 -1.6043 -15.7993 -9.0093 -0.8329 13.6312 -3.1310 -1.1604 6.7275 -0.0000 -0.0000 0.0000 -89.1815 5.0676 13.5303 13.5481 -22.0849 -2.6558 -0.0000 -0.0000 12.6258 2.0363 39.8947 1.3063 -7.1250 0.0000 -0.0000 -42.8409 64.8798 -22.4705 -0.0000 -0.0000 0.0000 85.0003 7.2949 -18.2330 -6.0469 10.3404 -0.5476 0.0000 0.0000 16.3067 -30.9766 29.3441 -16.3929 7.1250 -0.0000 -0.0000 -0.0630 3.2733 -0.0665
0.00 0.00 0.00 -0.9522 -1.4378 4.9824 0.0000 0.0000 0.0000 -18.6896 -7.1073 -23.4205 1.5249 7.7972 22.0999 0.3686 -6.2633 -11.0053 0.0452 1.3722 3.7736 0.0000 0.0000 0.0000 22.1114 -1.0382 10.0179 -1.9102 -8.6764 24.7882 0.0776 -6.1593 -6.1746 -0.5559 -4.7761 13.2710 -0.8504 0.7184 1.2255 0.9925 0.9579 -1.1582 1.4664 0.4974 -1.9047 2.0140 -1.2786 -19.0877 -5.2984 -1.2602 15.7532 -2.2556 -1.0236 7.9647 0.0000 0.0000 0.0000 -87.8838 6.5425 12.7253 14.5179 -23.4703 -3.0313 -0.0000 -0.0000 10.5557 1.2861 41.0236 0.8442 -7.1250 0.0000 -0.0000 -45.2835 65.4684 -24.5904 0.0000 0.0000 0.0000 84.3794 1.6190 -1.3172 -10.8994 18.1338 -1.7445 0.0000 -0.0000 -1.0877 -20.7944 27.2684 -9.8699 7.1250 -0.0000 -0.0000 5.5710 -1.2290 5.4764
0.00 0.00 0.00 2.1047 -0.8626 3.3319 0.0000 0.0000 0.0000 -23.9955 -4.7612 -17.9150 1.1882 6.9173 19.4706 0.4060 -8.2052 -11.9083 0.0912 1.9474 5.3602 0.0000 0.0000 0.0000 18.0206 -1.4726 3.0593 -5.0784 -13.4715 41.1602 0.2955 -10.5094 0.7489 -1.8017 -8.4402 24.0594 -3.0426 -0.0148 2.4774 -0.2494 -0.1251 -0.7128 1.4549 -0.0245 -2.1155 1.8139 -1.2435 -19.0157 -4.2058 -1.3415 16.9738 -1.8853 -0.9650 8.3673 0.0000 -0.0000 0.0000 -86.4840 6.2642 14.5051 16.1622 -25.7401 -3.7161 -0.0000 -0.0000 8.3632 2.8687 40.1245 1.8496 -7.1250 0.0000 -0.0000 -42.3780 65.2838 -22.5717 0.0000 -0.0000 0.0000 85.4650 -0.5045 -1.6968 -10.8890 18.1178 -1.7412 0.0000 -0.0000 -0.7094 -19.6606 27.6357 -9.4097 7.1250 -0.0000 -0.0000 6.2858 -1.0593 6.2062
0.00 0.00 0.00 4.5503 1.0123 1.5661 0.0000 0.0000 0.0000 -27.9473 -2.3485 -12.3926 0.9208 6.1136 17.1143 0.3811 -10.4009 -12.3158 0.0803 1.8275 5.0293 0.0000 0.0000 0.0000 14.7873 -2.8983 -6.2472 -9.6235 -17.1926 58.2225 0.4626 -11.9592 -3.9161 -3.8668 -11.9811 35.6650 -5.4736 -0.8167 4.4668 -1.0867 -1.3952 0.1016 2.0360 -0.6408 -2.2988 1.7730 -1.1731 -18.7741 -3.7354 -1.3312 16.8814 -1.7139 -0.9106 8.2978 -0.0000 0.0000 0.0000 -84.8686 4.5411 15.8259 17.9234 -28.0590 -4.5132 -0.0000 -0.0000 5.7258 3.9542 41.5245 2.6237 -7.1250 0.0000 -0.0000 -43.5368 66.6076 -24.5731 -0.0000 0.0000 0.0000 86.6147 -2.2348 -3.1409 -10.7574 17.9154 -1.7005 0.0000 0.0000 0.4010 -20.4630 27.3246 -9.7197 7.1250 -0.0000 -0.0000 5.7746 -1.2324 5.6782
0.00 0.00 0.00 0.3130 2.7628 7.7545 0.0000 0.0000 0.0000 -22.1796 -3.7067 6.6694 2.3927 9.6402 27.8192 -0.0367 -3.8905 3.4347 0.0508 1.4550 4.0018 0.0000 0.0000 0.0000 18.2485 9.2493 -23.7621 -0.8955 -6.0312 16.8751 0.0657 -5.5586 -5.4417 -0.5558 -4.7754 13.2691 0.4112 -1.3441 5.1582 4.4302 -1.6796 1.1070 4.4540 -0.8364 -1.6302 0.1742 -1.3593 -20.2309 -4.1858 -1.1039 14.4638 -1.5598 -0.9453 7.7575 0.0000 -0.0000 0.0000 -89.4324 7.7705 17.0578 13.4324 -21.9175 -2.6125 -0.0000 -0.0000 13.8834 -0.6452 42.4953 -0.4358 -7.1250 0.0000 -0.0000 -49.4867 65.8960 -27.8260 0.0000 -0.0000 0.0000 80.0277 -6.4050 -25.5701 -5.5468 9.5043 -0.4615 0.0000 0.0000 20.7458 -19.4747 13.4891 -4.7154 7.1250 -0.0000 -0.0000 5.4191 -15.7475 3.7621
0.00 0.00 0.00 -1.8868 4.2381 6.8340 0.0000 0.0000 0.0000 -17.5197 -4.7776 -0.9444 5.7746 14.2063 44.0704 -0.0257 -3.4691 3.3777 0.5182 4.6139 12.8104 0.0000 0.0000 0.0000 22.6317 8.0927 -19.0139 -0.8955 -6.0313 16.8753 0.0452 -5.9287 -7.0316 -0.5806 -4.8790 13.5639 3.0728 -1.3711 5.1291 4.6306 -1.5421 0.6726 3.1612 -0.7771 -2.1378 0.8325 -2.0691 -18.5095 -4.0247 -2.3046 14.1154 -1.7237 -1.4477 7.3113 0.0000 -0.0000 0.0000 -87.2659 7.7540 22.6091 15.4097 -24.7138 -3.3954 -0.0000 -0.0000 11.4491 -0.8963 42.1125 -0.6011 -7.1250 0.0000 -0.0000 -49.0773 65.5707 -27.1977 0.0000 -0.0000 0.0000 81.0072 -4.5190 -29.3961 -5.0478 8.6650 -0.3827 0.0000 0.0000 24.5039 -19.6786 13.9834 -4.9391 7.1250 -0.0000 -0.0000 5.2952 -15.2096 3.7368
